<svg xmlns="http://www.w3.org/2000/svg" width="14" height="16" viewBox="0 0 14 16"><defs><style>.a{fill:#747a8b;}</style></defs><path class="a" d="M12.5,2H11V.25A.251.251,0,0,0,10.75,0h-.5A.251.251,0,0,0,10,.25V2H4V.25A.251.251,0,0,0,3.75,0h-.5A.251.251,0,0,0,3,.25V2H1.5A1.5,1.5,0,0,0,0,3.5v11A1.5,1.5,0,0,0,1.5,16h11A1.5,1.5,0,0,0,14,14.5V3.5A1.5,1.5,0,0,0,12.5,2ZM13,14.5a.5.5,0,0,1-.5.5H1.5a.5.5,0,0,1-.5-.5V6H13ZM13,5H1V3.5A.5.5,0,0,1,1.5,3h11a.5.5,0,0,1,.5.5ZM3.5,12h3a.5.5,0,0,0,.5-.5v-3A.5.5,0,0,0,6.5,8h-3a.5.5,0,0,0-.5.5v3A.5.5,0,0,0,3.5,12ZM4,9H6v2H4Z"/></svg>