<svg xmlns="http://www.w3.org/2000/svg" width="18" height="14.4" viewBox="0 0 18 14.4"><defs><style>.a{fill:#747a8b;}</style></defs><path class="a" d="M15.3,6.3a2.25,2.25,0,1,0,2.25,2.25A2.249,2.249,0,0,0,15.3,6.3Zm0,3.6a1.35,1.35,0,1,1,1.35-1.35A1.35,1.35,0,0,1,15.3,9.9ZM6.75,8.55A2.25,2.25,0,1,0,9,6.3,2.249,2.249,0,0,0,6.75,8.55Zm3.6,0A1.35,1.35,0,1,1,9,7.2,1.35,1.35,0,0,1,10.35,8.55ZM2.7,10.8A2.25,2.25,0,1,0,.45,8.55,2.249,2.249,0,0,0,2.7,10.8Zm0-3.6A1.35,1.35,0,1,1,1.35,8.55,1.35,1.35,0,0,1,2.7,7.2Zm13.163,4.5H14.738A2.2,2.2,0,0,0,12.6,13.95a.45.45,0,0,0,.9,0,1.3,1.3,0,0,1,1.238-1.35h1.125A1.3,1.3,0,0,1,17.1,13.95a.45.45,0,1,0,.9,0A2.2,2.2,0,0,0,15.863,11.7Zm-12.6,0H2.138A2.2,2.2,0,0,0,0,13.95a.45.45,0,0,0,.9,0A1.3,1.3,0,0,1,2.138,12.6H3.263A1.3,1.3,0,0,1,4.5,13.95a.45.45,0,0,0,.9,0A2.2,2.2,0,0,0,3.263,11.7Zm6.3,0H8.438A2.2,2.2,0,0,0,6.3,13.95a.45.45,0,0,0,.9,0A1.3,1.3,0,0,1,8.438,12.6H9.563A1.3,1.3,0,0,1,10.8,13.95a.45.45,0,0,0,.9,0A2.2,2.2,0,0,0,9.563,11.7ZM1.8,1.35A.451.451,0,0,1,2.25.9h13.5a.451.451,0,0,1,.45.45v4.2a3.128,3.128,0,0,1,.9.425V1.35A1.351,1.351,0,0,0,15.75,0H2.25A1.351,1.351,0,0,0,.9,1.35V5.972a3.135,3.135,0,0,1,.9-.425Z"/></svg>