<svg xmlns="http://www.w3.org/2000/svg" width="20" height="14" viewBox="0 0 20 14"><defs><style>.a{fill:#747a8b;}</style></defs><path class="a" d="M17,38a2.5,2.5,0,1,0-2.5-2.5A2.5,2.5,0,0,0,17,38Zm0-4a1.5,1.5,0,1,1-1.5,1.5A1.5,1.5,0,0,1,17,34Zm-7,5a3.5,3.5,0,1,0-3.5-3.5A3.5,3.5,0,0,0,10,39Zm0-6a2.5,2.5,0,1,1-2.5,2.5A2.5,2.5,0,0,1,10,33Zm7.625,6h-1.25a2.261,2.261,0,0,0-1.284.4,4.236,4.236,0,0,1,.794.7,1.243,1.243,0,0,1,.491-.1h1.25A1.444,1.444,0,0,1,19,41.5a.5.5,0,0,0,1,0A2.443,2.443,0,0,0,17.625,39ZM3,38A2.5,2.5,0,1,0,.5,35.5,2.5,2.5,0,0,0,3,38Zm0-4a1.5,1.5,0,1,1-1.5,1.5A1.5,1.5,0,0,1,3,34Zm9.5,5.625c-1.044,0-1.3.375-2.5.375s-1.459-.375-2.5-.375a3.444,3.444,0,0,0-2.884,1.466A3.581,3.581,0,0,0,4,43.1v1.4A1.5,1.5,0,0,0,5.5,46h9A1.5,1.5,0,0,0,16,44.5V43.1a3.581,3.581,0,0,0-.613-2.009A3.444,3.444,0,0,0,12.5,39.625ZM15,44.5a.5.5,0,0,1-.5.5h-9a.5.5,0,0,1-.5-.5V43.1a2.6,2.6,0,0,1,.441-1.45,2.446,2.446,0,0,1,2.053-1.025C8.35,40.625,8.656,41,10,41s1.65-.375,2.5-.375a2.446,2.446,0,0,1,2.053,1.025A2.6,2.6,0,0,1,15,43.1v1.4ZM4.909,39.4A2.276,2.276,0,0,0,3.625,39H2.375A2.443,2.443,0,0,0,0,41.5a.5.5,0,0,0,1,0A1.444,1.444,0,0,1,2.375,40h1.25a1.243,1.243,0,0,1,.491.1,4.336,4.336,0,0,1,.794-.7Z" transform="translate(0 -32)"/></svg>